<svg width="24" height="24" viewBox="0 0 24 24" fill="none" xmlns="http://www.w3.org/2000/svg">
<path fill-rule="evenodd" clip-rule="evenodd" d="M3.75 3C2.92157 3 2.25 3.67157 2.25 4.5V19.5C2.25 20.3284 2.92157 21 3.75 21H20.25C21.0784 21 21.75 20.3284 21.75 19.5V4.5C21.75 3.67157 21.0784 3 20.25 3H3.75ZM0.75 4.5C0.75 2.84315 2.09315 1.5 3.75 1.5H20.25C21.9069 1.5 23.25 2.84315 23.25 4.5V19.5C23.25 21.1569 21.9069 22.5 20.25 22.5H3.75C2.09315 22.5 0.75 21.1569 0.75 19.5V4.5Z" fill="black"/>
<path fill-rule="evenodd" clip-rule="evenodd" d="M3.91438 4.78151C4.17313 4.45806 4.6451 4.40562 4.96855 4.66438L8.71855 7.66438C8.89646 7.80671 9.00003 8.02219 9.00003 8.25003C9.00003 8.47787 8.89646 8.69335 8.71855 8.83568L4.96855 11.8357C4.6451 12.0944 4.17313 12.042 3.91438 11.7185C3.65562 11.3951 3.70806 10.9231 4.03151 10.6644L7.04944 8.25003L4.03151 5.83568C3.70806 5.57692 3.65562 5.10495 3.91438 4.78151ZM8.25003 11.25C8.25003 10.8358 8.58581 10.5 9.00003 10.5H12C12.4142 10.5 12.75 10.8358 12.75 11.25C12.75 11.6642 12.4142 12 12 12H9.00003C8.58581 12 8.25003 11.6642 8.25003 11.25Z" fill="black"/>
</svg>
